PathFileType	4	(X/Y/Z)	s11c0403.trc
DataRate	CameraRate	NumFrames	NumMarkers	Units	OrigDataRate	OrigDataStartFrame	OrigNumFrames
200	200	4	48	mm	200	1750	2000
Frame#	Time	racr			lacr			c7			jug			rlel			rdr			llel			ldr			s2			lic			ric			lasi			rasi			rpsi			lpsi			rgt			lgt			rth1			rth2			rth3			rth4			rlfc			rmfc			rsh1			rsh2			rsh3			rsh4			rlmal			rcal			rtoe			rmt5			lth1			lth2			lth4			lth3			llfc			lmfc			llmal			lcal			lmt5			lsh1			lsh2			lsh3			lsh4			ltoe			SBIKE			LBIKE			RBIKE			
		X1	Y1	Z1	X2	Y2	Z2	X3	Y3	Z3	X4	Y4	Z4	X5	Y5	Z5	X6	Y6	Z6	X7	Y7	Z7	X8	Y8	Z8	X9	Y9	Z9	X10	Y10	Z10	X11	Y11	Z11	X12	Y12	Z12	X13	Y13	Z13	X14	Y14	Z14	X15	Y15	Z15	X16	Y16	Z16	X17	Y17	Z17	X18	Y18	Z18	X19	Y19	Z19	X20	Y20	Z20	X21	Y21	Z21	X22	Y22	Z22	X23	Y23	Z23	X24	Y24	Z24	X25	Y25	Z25	X26	Y26	Z26	X27	Y27	Z27	X28	Y28	Z28	X29	Y29	Z29	X30	Y30	Z30	X31	Y31	Z31	X32	Y32	Z32	X33	Y33	Z33	X34	Y34	Z34	X35	Y35	Z35	X36	Y36	Z36	X37	Y37	Z37	X38	Y38	Z38	X39	Y39	Z39	X40	Y40	Z40	X41	Y41	Z41	X42	Y42	Z42	X43	Y43	Z43	X44	Y44	Z44	X45	Y45	Z45	X46	Y46	Z46	X47	Y47	Z47	X48	Y48	Z48	
1750	8.7500	810.750480	1333.506951	-123.079842	780.776728	1367.390225	-466.246414	784.706956	1448.162355	-292.849671	739.387360	1273.923214	-303.260840	620.055904	1151.983322	11.024827	776.653560	971.075208	-95.392813	566.671643	1161.032322	-589.623568	764.569743	952.704987	-476.772320	182.464160	1291.748896	-234.843781	367.385297	1312.687336	-458.315455	418.569718	1249.751764	-56.620299	388.139561	1226.247676	-427.242904	441.225537	1188.385837	-98.248968	237.292584	1357.789572	-174.552689	225.601194	1362.834568	-264.506151	315.429663	1109.111420	-40.978478	288.094271	1187.931496	-467.414724	364.119754	980.882466	-40.998390	408.763136	905.738078	-59.921050	409.645701	819.730029	-76.404067	441.380578	917.485394	-71.970716	433.025310	722.616280	-95.979954	427.753988	697.753469	-218.929063	323.305271	599.471844	-75.301200	281.649706	523.024695	-91.352789	209.374377	474.624983	-88.806930	302.466917	507.688676	-121.600738	111.474033	382.177562	-96.573278	62.808897	423.223212	-145.469240	202.187991	171.595684	-148.463726	140.709092	211.314705	-77.992796	406.922974	1091.719598	-481.100601	476.832215	1056.536216	-478.130512	500.933002	1081.794435	-471.993778	535.699975	982.621152	-472.379883	637.522564	886.028944	-450.183463	652.157262	877.648667	-318.242770	369.698388	545.791992	-422.555500	299.501466	543.820369	-387.092685	436.165663	387.120443	-455.001320	563.188458	788.677775	-463.866163	533.764612	708.927546	-452.314087	467.109958	650.997781	-444.937889	561.838966	692.493655	-430.052567	526.560981	349.606801	-389.571313	-176.943240	972.320074	-171.126027	-17.858377	81.381229	-460.817704	-17.797596	81.496249	-62.067657	
1751	8.7550	810.623323	1333.900121	-123.486637	781.290950	1366.734770	-465.526130	784.996934	1447.834791	-292.829544	738.948311	1274.189159	-302.637667	620.463597	1151.152490	9.211568	777.341203	970.700181	-96.053038	566.908325	1161.311604	-589.761698	764.589535	953.199637	-476.850363	182.724220	1293.542737	-235.541948	367.321505	1312.667119	-459.440784	418.254472	1253.086397	-56.408971	387.375384	1226.065333	-428.439798	441.018312	1190.978275	-96.834746	237.758976	1359.877951	-176.192786	225.892402	1364.429428	-265.908829	316.984842	1111.243293	-41.169302	286.084002	1187.172855	-467.039503	368.952246	983.052277	-41.279834	414.902802	908.774262	-60.559916	417.191709	822.738290	-76.799974	447.138212	921.032694	-72.875028	441.284215	726.710750	-96.485295	435.713444	700.626038	-219.294274	329.197373	603.619347	-75.507449	285.927646	527.925224	-91.599416	212.693464	481.403988	-88.694409	306.255763	512.512863	-122.027974	112.558037	391.428988	-96.182240	65.286897	434.012266	-145.237251	196.798192	178.075990	-148.265588	136.393987	219.747553	-77.937934	403.123873	1088.931992	-481.002354	479.708766	1052.503215	-474.593711	502.769562	1076.395633	-461.516582	530.197520	977.701457	-472.870049	631.669876	879.498569	-450.077431	646.223279	871.438242	-318.504071	369.013266	534.522134	-422.310461	298.519373	530.812111	-386.696031	439.507587	377.910072	-455.147358	558.625672	780.245535	-464.080721	530.770250	699.440377	-450.887565	464.874656	641.027701	-444.666522	558.770176	684.236929	-429.771496	531.103291	342.994117	-390.035104	-176.795459	972.384027	-171.079135	-17.825663	81.337725	-460.849575	-17.790120	81.508892	-62.061043	
1752	8.7600	810.490484	1334.283208	-123.645703	781.758619	1366.122221	-464.789982	785.253016	1447.651824	-292.724749	738.569137	1274.344807	-301.832099	620.682712	1150.688394	7.341264	777.821289	970.572756	-96.483601	567.142990	1161.711334	-589.909102	764.664855	953.594227	-477.235858	182.926812	1295.166391	-236.078268	367.356135	1312.259727	-460.590855	417.931318	1255.731113	-56.425208	386.796718	1225.632946	-429.648551	441.069111	1192.898097	-96.560949	237.650691	1361.386142	-177.695773	226.251371	1365.740799	-267.590806	318.575897	1113.109925	-41.355064	284.101270	1186.048269	-466.658139	373.797015	985.011106	-41.523145	420.926048	911.643977	-61.054930	424.607787	825.470850	-77.649194	452.808126	924.454937	-73.711409	450.096470	731.739051	-95.670734	443.304751	703.722675	-219.958696	335.204001	607.854746	-75.678424	290.383320	533.078576	-91.824982	216.308919	487.851977	-88.579945	310.087005	517.428839	-122.473845	113.817172	400.828390	-95.876051	67.871504	444.737977	-145.002067	191.876543	185.162569	-148.169260	132.675600	228.452699	-77.881536	399.241870	1085.909616	-480.811767	475.364895	1048.386202	-474.947671	499.117753	1072.664057	-463.192660	525.001698	973.182023	-472.726153	625.425699	872.337852	-450.030121	640.035400	864.536577	-318.752941	367.659648	522.855691	-421.892069	297.078046	517.182903	-386.594840	442.003676	368.606763	-455.572626	553.389586	771.081902	-464.314368	526.867341	690.132118	-450.661943	461.895262	630.777742	-444.437682	555.065127	675.405122	-429.358572	534.729295	335.971657	-390.143874	-176.943452	972.307900	-171.133656	-17.853226	81.320094	-460.834740	-17.793918	81.483872	-62.057750	
1753	8.7650	810.303316	1334.690160	-123.620679	782.286776	1365.540284	-463.893879	785.473970	1447.576668	-292.479708	738.261862	1274.514913	-300.978235	620.740916	1150.413593	5.628445	778.098061	970.644064	-96.679196	567.391406	1162.226516	-590.064097	764.526581	953.751047	-477.665221	183.329065	1296.569946	-236.147739	367.404079	1311.300682	-461.544750	417.537898	1258.459330	-56.272832	386.512613	1224.681921	-430.545477	440.943182	1194.480115	-96.162799	243.881133	1360.589437	-183.473330	226.646272	1366.700724	-269.240791	320.303966	1114.947934	-41.523262	282.110074	1184.781368	-466.137812	378.635058	987.186652	-41.654523	426.866283	914.365230	-61.489880	432.010991	828.584992	-77.396403	458.320787	927.772241	-74.486167	456.512159	734.901569	-98.269876	450.532607	706.888226	-220.772351	341.415574	612.122867	-75.663469	294.721847	538.244153	-92.146132	219.930245	494.573808	-88.530103	313.958631	522.461269	-123.054149	115.290430	410.363185	-95.598484	70.656816	455.496674	-144.726298	186.952828	191.963439	-148.965039	129.584366	237.401430	-77.914818	395.409231	1082.670732	-480.541842	471.117435	1044.050781	-475.642763	495.545618	1068.623147	-465.138437	519.413854	967.940045	-473.087331	618.656644	864.754491	-450.076869	633.427320	857.210525	-319.389632	365.599777	510.918750	-421.571328	294.965000	503.377081	-386.320016	443.932620	358.977651	-455.704433	547.928482	761.348823	-464.477794	522.199648	680.652059	-450.900989	458.281791	619.976116	-444.200624	550.722495	666.248690	-429.073729	537.499726	329.450026	-390.853462	-176.862186	972.269461	-171.130106	-17.873069	81.323990	-460.845778	-17.793641	81.463280	-62.064124	
